<svg width="587" height="588" viewBox="0 0 587 588" fill="none" xmlns="http://www.w3.org/2000/svg">
<path opacity="0.2" d="M586.522 445.717V295.218H586.999V293.556H586.522V143.058C586.513 106.149 572.153 70.6905 546.478 44.1805V41.4498H586.522V39.7771H547.638L584.975 2.22911L583.837 1.09129L546.512 38.6393V1.89914H544.852V39.7771H542.03C515.907 14.8004 481.166 0.851602 445.027 0.82959H141.483C105.359 0.863303 70.6373 14.8112 44.5255 39.7771H41.6929V1.89914H40.0434V38.6052L2.71885 1.05715L1.58126 2.19497L38.9057 39.743H2.3662V41.4043H40.0434V44.1805C14.3656 70.6885 0.00512309 106.148 0 143.058V445.717C0.00512309 482.626 14.3656 518.086 40.0434 544.593V547.37H2.3662V549.031H38.8716L1.54713 586.579L2.68473 587.717L40.0093 550.169V586.876H41.6588V548.997H44.4913C70.6117 573.971 105.348 587.92 141.483 587.945H445.027C481.154 587.914 515.881 573.966 541.996 548.997H544.817V586.876H546.478V550.169L583.802 587.717L584.94 586.579L547.605 549.031H586.999V547.37H546.478V544.593C572.146 518.079 586.506 482.624 586.522 445.717ZM584.861 445.717C584.858 481.596 571.124 516.112 546.478 542.181V399.578H584.269V397.929H546.478V295.218H584.861V445.717ZM397.396 397.929L396.259 396.791C398.147 394.872 399.979 392.899 401.753 390.874V397.929H397.396ZM401.753 399.59V402.31L399.046 399.59H401.753ZM185.712 397.929V391.955C187.191 393.605 188.716 395.21 190.263 396.791L189.125 397.929H185.712ZM187.476 399.59L185.712 401.342V399.578L187.476 399.59ZM189.125 190.846L190.263 191.984C188.716 193.564 187.191 195.181 185.712 196.819V190.846H189.125ZM185.712 189.184V187.433L187.476 189.196L185.712 189.184ZM401.753 190.846V197.9C399.979 195.875 398.147 193.902 396.259 191.984L397.396 190.846H401.753ZM399.046 189.184L401.753 186.465V189.184H399.046ZM401.753 293.545H397.862C397.69 266.247 386.913 240.085 367.808 220.588L395.109 193.167C397.385 195.496 399.607 197.911 401.776 200.414L401.753 293.545ZM403.402 202.383C424.621 228.033 436.282 260.253 436.393 293.545H403.402V202.383ZM366.635 221.726C385.441 240.901 396.048 266.641 396.214 293.5H295.251L366.635 221.726ZM294.091 292.271V190.846C320.853 191.032 346.476 201.702 365.464 220.566L294.091 292.271ZM292.43 292.271L221.046 220.486C240.056 201.657 265.678 191.018 292.43 190.846V292.271ZM291.293 293.409H190.308C190.48 266.551 201.086 240.813 219.885 221.635L291.293 293.409ZM291.293 295.07L219.908 366.843C201.109 347.666 190.503 321.927 190.331 295.07H291.293ZM292.43 296.208V397.929C265.663 397.741 240.036 387.067 221.046 368.198L292.43 296.208ZM294.091 296.208L365.464 367.981C346.515 386.932 320.887 397.685 294.091 397.929V296.208ZM295.229 295.07H396.179C396.014 321.929 385.406 347.669 366.602 366.843L295.229 295.07ZM393.915 191.984L366.613 219.416C351.627 204.546 332.477 194.582 311.701 190.846H392.755L393.915 191.984ZM294.091 189.184V150.419C330.144 150.595 364.785 164.455 391.014 189.196L294.091 189.184ZM292.43 189.184H195.507C221.731 164.436 256.376 150.576 292.43 150.407V189.184ZM274.809 190.846C254.027 194.583 234.869 204.546 219.875 219.416L192.572 191.984L193.71 190.846H274.809ZM191.435 193.122L218.737 220.543C199.623 240.033 188.843 266.199 188.682 293.5H185.735V199.334C187.567 197.229 189.467 195.169 191.435 193.178V193.122ZM184.063 293.5H150.083C150.21 259.698 162.241 227.022 184.063 201.211V293.5ZM184.063 295.161V387.45C162.241 361.639 150.21 328.963 150.083 295.161H184.063ZM185.712 295.161H188.659C188.819 322.459 199.599 348.621 218.714 368.107L191.412 395.539C189.444 393.548 187.544 391.489 185.724 389.384L185.712 295.161ZM192.607 396.791L219.908 369.358C234.895 384.222 254.038 394.185 274.809 397.929H193.767L192.607 396.791ZM292.43 399.59V438.367C256.376 438.198 221.731 424.338 195.507 399.59H292.43ZM294.091 399.59H391.014C364.785 424.331 330.144 438.19 294.091 438.367V399.59ZM311.701 397.929C332.485 394.196 351.644 384.232 366.635 369.358L393.938 396.791L392.8 397.929H311.701ZM395.087 395.653L367.785 368.22C386.892 348.73 397.67 322.571 397.84 295.274H401.731V388.406C399.607 390.863 397.393 393.278 395.087 395.653ZM403.402 295.274H436.393C436.282 328.566 424.621 360.786 403.402 386.436V295.274ZM438.088 293.614C437.961 259.252 425.673 226.044 403.402 199.88V190.846H490.884C507.351 222.578 515.984 257.793 516.059 293.545L438.088 293.614ZM403.402 189.252V184.86L451.386 136.628C466.753 152.196 479.765 169.924 490.008 189.252H403.402ZM403.402 182.516V99.6154C420.516 109.423 436.256 121.451 450.215 135.388L403.402 182.516ZM401.753 184.178L396.714 189.252H393.426C366.77 163.453 331.184 148.942 294.091 148.747V70.3731C331.807 70.456 368.873 80.2022 401.753 98.6825V184.178ZM292.43 148.747C255.347 148.922 219.762 163.408 193.096 189.184H189.808L185.712 185.065V98.1361C218.364 79.9992 255.082 70.4431 292.43 70.3618V148.747ZM184.063 183.416L136.284 135.388C150.509 121.196 166.58 108.984 184.063 99.0804V183.416ZM184.063 185.771V189.184H96.4678C106.708 169.854 119.72 152.124 135.09 136.56L184.063 185.771ZM184.063 190.857V198.708C161.204 225.032 148.556 258.69 148.422 293.556H70.4626C70.5364 257.801 79.1687 222.582 95.6377 190.846L184.063 190.857ZM148.422 295.218C148.556 330.084 161.204 363.743 184.063 390.066V397.929H95.6377C79.1705 366.196 70.5382 330.981 70.4626 295.229L148.422 295.218ZM184.063 399.578V402.992L135.146 452.18C119.776 436.615 106.765 418.887 96.5253 399.555L184.063 399.578ZM184.063 405.359V489.694C166.58 479.791 150.509 467.578 136.284 453.386L184.063 405.359ZM185.712 403.697L189.808 399.578H193.096C219.76 425.359 255.345 439.85 292.43 440.028V518.424C255.082 518.333 218.365 508.773 185.712 490.638V403.697ZM294.091 440.028C331.175 439.851 366.759 425.365 393.426 399.59H396.714L401.753 404.664V490.092C368.872 508.571 331.807 518.32 294.091 518.413V440.028ZM403.402 406.326L450.215 453.398C436.251 467.328 420.511 479.356 403.402 489.17V406.326ZM403.402 403.982V399.59H490.008C479.765 418.919 466.753 436.647 451.386 452.214L403.402 403.982ZM403.402 397.929V388.963C425.673 362.798 437.961 329.591 438.088 295.229H516.059C515.984 330.981 507.351 366.196 490.884 397.929H403.402ZM517.708 295.229H544.817V397.929H492.749C509.083 366.152 517.638 330.949 517.708 295.218V295.229ZM517.708 293.568C517.639 257.833 509.085 222.627 492.749 190.846H544.817V293.545L517.708 293.568ZM491.873 189.207C481.491 169.432 468.242 151.3 452.558 135.399L543.771 43.7254L543.85 43.7937C544.191 44.1464 544.533 44.5219 544.874 44.9315V189.196L491.873 189.207ZM542.52 42.5762L451.386 134.216C437.098 119.952 420.959 107.671 403.402 97.7037V41.4384H541.336L542.52 42.5762ZM401.753 96.7824C368.822 78.4559 331.777 68.7936 294.091 68.7005V41.3928H401.753V96.7824ZM294.091 39.7771V2.4908H401.753V39.7771H294.091ZM292.43 39.7771H185.712V2.4908H292.43V39.7771ZM292.43 41.4384V68.7461C255.112 68.8334 218.414 78.3062 185.712 96.2925V41.4384H292.43ZM184.063 97.1917C166.144 107.246 149.685 119.707 135.146 134.228L44.0136 42.5876L45.1512 41.4498H184.063V97.1917ZM42.7281 43.7937L42.7964 43.7254L133.963 135.388C118.273 151.285 105.02 169.418 94.637 189.196H41.6929V44.886C42.0911 44.5219 42.3755 44.1464 42.7281 43.7937ZM93.7724 190.846C77.4404 222.62 68.8861 257.818 68.8132 293.545H41.6929V190.846H93.7724ZM68.8132 295.206C68.8826 330.941 77.437 366.148 93.7724 397.929H41.6929V295.218L68.8132 295.206ZM94.637 399.567C105.02 419.345 118.273 437.478 133.963 453.375L42.7964 545.049L42.7281 544.981C42.3755 544.628 42.0456 544.252 41.6929 543.843V399.578L94.637 399.567ZM44.0022 546.198L135.135 454.558C149.677 469.079 166.134 481.543 184.052 491.605V547.358H45.1853L44.0022 546.198ZM185.712 492.528C218.414 510.513 255.112 519.987 292.43 520.073V547.381H185.712V492.528ZM292.43 548.997V586.283H185.712V548.997H292.43ZM294.091 548.997H401.753V586.283H294.091V548.997ZM294.091 547.336V520.028C331.777 519.935 368.822 510.273 401.753 491.947V547.29L294.091 547.336ZM403.402 491.07C420.959 481.103 437.098 468.823 451.386 454.558L542.52 546.198L541.382 547.336H403.402V491.07ZM543.771 544.981L543.691 545.049L452.535 453.386C468.22 437.485 481.468 419.354 491.851 399.578H544.794V543.889L543.771 544.981ZM584.861 143.058V293.556H546.478V190.846H584.269V189.184H546.478V46.6268C571.116 72.6877 584.849 107.19 584.861 143.058ZM539.607 39.743H403.402V2.4908H445.027C480.132 2.51674 513.926 15.839 539.607 39.7771V39.743ZM141.448 2.45667H184.063V39.743H46.9145C72.598 15.8189 106.386 2.5092 141.483 2.4908L141.448 2.45667ZM1.64951 445.717V143.058C1.6566 107.177 15.3944 72.661 40.0434 46.5927V189.161H2.27519V190.846H40.0434V293.545H2.13868V295.206H40.0434V397.929H2.27519V399.59H40.0434V542.159C15.3998 516.096 1.66242 481.589 1.64951 445.717ZM46.9145 549.031H184.063V586.318H141.483C106.377 586.28 72.5875 572.947 46.9145 548.997V549.031ZM445.073 586.318H403.402V548.997H539.607C513.924 572.933 480.132 586.256 445.027 586.283L445.073 586.318Z" fill="url(#paint0_radial_81_1916)"/>
<defs>
<radialGradient id="paint0_radial_81_1916" cx="0" cy="0" r="1" gradientUnits="userSpaceOnUse" gradientTransform="translate(293.5 294.387) rotate(90) scale(309.261 309.2)">
<stop stop-color="white"/>
<stop offset="1" stop-color="white" stop-opacity="0"/>
</radialGradient>
</defs>
</svg>
